<mxfile host="app.diagrams.net" modified="2023-11-10T16:28:35.303Z" agent="Mozilla/5.0 (Windows NT 10.0; Win64; x64) AppleWebKit/537.36 (KHTML, like Gecko) Chrome/119.0.0.0 Safari/537.36" etag="YZwq5wm1sVHz3AFiu_BY" version="22.1.0" type="google">
  <diagram name="Sayfa -1" id="sG8aGEUr2zv0KGtf0KgE">
    <mxGraphModel grid="1" page="1" gridSize="10" guides="1" tooltips="1" connect="1" arrows="1" fold="1" pageScale="1" pageWidth="827" pageHeight="1169" math="0" shadow="0">
      <root>
        <mxCell id="0" />
        <mxCell id="1" parent="0" />
        <mxCell id="Y7XemuHt4IpBJlOOACKv-4" value="" style="edgeStyle=orthogonalEdgeStyle;rounded=0;orthogonalLoop=1;jettySize=auto;html=1;" edge="1" parent="1" source="Y7XemuHt4IpBJlOOACKv-1">
          <mxGeometry relative="1" as="geometry">
            <mxPoint x="294" y="110" as="targetPoint" />
          </mxGeometry>
        </mxCell>
        <mxCell id="Y7XemuHt4IpBJlOOACKv-1" value="START" style="ellipse;whiteSpace=wrap;html=1;" vertex="1" parent="1">
          <mxGeometry x="234" width="120" height="80" as="geometry" />
        </mxCell>
        <mxCell id="Y7XemuHt4IpBJlOOACKv-99" value="" style="edgeStyle=orthogonalEdgeStyle;rounded=0;orthogonalLoop=1;jettySize=auto;html=1;" edge="1" parent="1" source="Y7XemuHt4IpBJlOOACKv-6" target="Y7XemuHt4IpBJlOOACKv-98">
          <mxGeometry relative="1" as="geometry" />
        </mxCell>
        <mxCell id="Y7XemuHt4IpBJlOOACKv-6" value="n&amp;gt;10 &amp;amp;&amp;amp; n&amp;lt;0" style="shape=hexagon;perimeter=hexagonPerimeter2;whiteSpace=wrap;html=1;fixedSize=1;" vertex="1" parent="1">
          <mxGeometry x="235" y="300" width="110" height="70" as="geometry" />
        </mxCell>
        <mxCell id="Y7XemuHt4IpBJlOOACKv-7" value="" style="endArrow=classic;html=1;rounded=0;exitX=1;exitY=0.75;exitDx=0;exitDy=0;" edge="1" parent="1" source="Y7XemuHt4IpBJlOOACKv-6" target="Y7XemuHt4IpBJlOOACKv-10">
          <mxGeometry width="50" height="50" relative="1" as="geometry">
            <mxPoint x="370" y="340" as="sourcePoint" />
            <mxPoint x="370" y="370" as="targetPoint" />
          </mxGeometry>
        </mxCell>
        <mxCell id="Y7XemuHt4IpBJlOOACKv-9" value="" style="edgeStyle=orthogonalEdgeStyle;rounded=0;orthogonalLoop=1;jettySize=auto;html=1;exitX=0.442;exitY=0.942;exitDx=0;exitDy=0;exitPerimeter=0;entryX=0.5;entryY=0;entryDx=0;entryDy=0;" edge="1" parent="1" source="Y7XemuHt4IpBJlOOACKv-8" target="Y7XemuHt4IpBJlOOACKv-6">
          <mxGeometry relative="1" as="geometry">
            <mxPoint x="289.58" y="280" as="sourcePoint" />
            <mxPoint x="289.58" y="290" as="targetPoint" />
          </mxGeometry>
        </mxCell>
        <mxCell id="Y7XemuHt4IpBJlOOACKv-8" value="&#39;n giriniz&#39;" style="shape=document;whiteSpace=wrap;html=1;boundedLbl=1;" vertex="1" parent="1">
          <mxGeometry x="240" y="200" width="110" height="60" as="geometry" />
        </mxCell>
        <mxCell id="Y7XemuHt4IpBJlOOACKv-29" value="" style="edgeStyle=orthogonalEdgeStyle;rounded=0;orthogonalLoop=1;jettySize=auto;html=1;" edge="1" parent="1" source="Y7XemuHt4IpBJlOOACKv-10">
          <mxGeometry relative="1" as="geometry">
            <mxPoint x="390" y="500" as="targetPoint" />
          </mxGeometry>
        </mxCell>
        <mxCell id="Y7XemuHt4IpBJlOOACKv-10" value="&#39;Tekrar giriniz&#39;" style="shape=document;whiteSpace=wrap;html=1;boundedLbl=1;" vertex="1" parent="1">
          <mxGeometry x="345" y="360" width="100" height="40" as="geometry" />
        </mxCell>
        <mxCell id="Y7XemuHt4IpBJlOOACKv-11" value="" style="endArrow=classic;html=1;rounded=0;entryX=0.894;entryY=0.173;entryDx=0;entryDy=0;entryPerimeter=0;" edge="1" parent="1" target="Y7XemuHt4IpBJlOOACKv-6">
          <mxGeometry width="50" height="50" relative="1" as="geometry">
            <mxPoint x="460" y="500" as="sourcePoint" />
            <mxPoint x="350" y="290" as="targetPoint" />
            <Array as="points">
              <mxPoint x="460" y="460" />
              <mxPoint x="460" y="420" />
              <mxPoint x="460" y="390" />
              <mxPoint x="460" y="290" />
              <mxPoint x="400" y="290" />
              <mxPoint x="380" y="290" />
            </Array>
          </mxGeometry>
        </mxCell>
        <mxCell id="Y7XemuHt4IpBJlOOACKv-12" value="" style="rounded=0;whiteSpace=wrap;html=1;" vertex="1" parent="1">
          <mxGeometry x="240" y="530" width="110" height="60" as="geometry" />
        </mxCell>
        <mxCell id="Y7XemuHt4IpBJlOOACKv-14" value="" style="endArrow=none;html=1;rounded=0;exitX=0;exitY=0.5;exitDx=0;exitDy=0;entryX=1;entryY=0.5;entryDx=0;entryDy=0;" edge="1" parent="1" source="Y7XemuHt4IpBJlOOACKv-12" target="Y7XemuHt4IpBJlOOACKv-12">
          <mxGeometry width="50" height="50" relative="1" as="geometry">
            <mxPoint x="360" y="660" as="sourcePoint" />
            <mxPoint x="410" y="610" as="targetPoint" />
          </mxGeometry>
        </mxCell>
        <mxCell id="Y7XemuHt4IpBJlOOACKv-19" value="" style="endArrow=none;html=1;rounded=0;" edge="1" parent="1">
          <mxGeometry width="50" height="50" relative="1" as="geometry">
            <mxPoint x="310" y="530" as="sourcePoint" />
            <mxPoint x="310" y="560" as="targetPoint" />
            <Array as="points" />
          </mxGeometry>
        </mxCell>
        <mxCell id="Y7XemuHt4IpBJlOOACKv-20" value="" style="endArrow=none;html=1;rounded=0;" edge="1" parent="1">
          <mxGeometry width="50" height="50" relative="1" as="geometry">
            <mxPoint x="320" y="530" as="sourcePoint" />
            <mxPoint x="320" y="560" as="targetPoint" />
            <Array as="points" />
          </mxGeometry>
        </mxCell>
        <mxCell id="Y7XemuHt4IpBJlOOACKv-21" value="i&amp;lt;-1" style="text;html=1;strokeColor=none;fillColor=none;align=center;verticalAlign=middle;whiteSpace=wrap;rounded=0;" vertex="1" parent="1">
          <mxGeometry x="240" y="530" width="60" height="30" as="geometry" />
        </mxCell>
        <mxCell id="Y7XemuHt4IpBJlOOACKv-22" value="1" style="text;html=1;strokeColor=none;fillColor=none;align=center;verticalAlign=middle;whiteSpace=wrap;rounded=0;" vertex="1" parent="1">
          <mxGeometry x="324" y="530" width="26" height="25" as="geometry" />
        </mxCell>
        <mxCell id="Y7XemuHt4IpBJlOOACKv-44" style="edgeStyle=orthogonalEdgeStyle;rounded=0;orthogonalLoop=1;jettySize=auto;html=1;entryX=0.589;entryY=1.027;entryDx=0;entryDy=0;entryPerimeter=0;" edge="1" parent="1" source="Y7XemuHt4IpBJlOOACKv-23" target="Y7XemuHt4IpBJlOOACKv-41">
          <mxGeometry relative="1" as="geometry">
            <mxPoint x="290" y="730" as="targetPoint" />
            <Array as="points">
              <mxPoint x="290" y="670" />
            </Array>
          </mxGeometry>
        </mxCell>
        <mxCell id="Y7XemuHt4IpBJlOOACKv-23" value="n" style="text;html=1;strokeColor=none;fillColor=none;align=center;verticalAlign=middle;whiteSpace=wrap;rounded=0;" vertex="1" parent="1">
          <mxGeometry x="264" y="560" width="60" height="30" as="geometry" />
        </mxCell>
        <mxCell id="Y7XemuHt4IpBJlOOACKv-25" value="" style="edgeStyle=orthogonalEdgeStyle;rounded=0;orthogonalLoop=1;jettySize=auto;html=1;" edge="1" parent="1" source="Y7XemuHt4IpBJlOOACKv-24" target="Y7XemuHt4IpBJlOOACKv-8">
          <mxGeometry relative="1" as="geometry" />
        </mxCell>
        <mxCell id="Y7XemuHt4IpBJlOOACKv-24" value="n,dizi[n]" style="rounded=0;whiteSpace=wrap;html=1;" vertex="1" parent="1">
          <mxGeometry x="234" y="110" width="120" height="60" as="geometry" />
        </mxCell>
        <mxCell id="Y7XemuHt4IpBJlOOACKv-33" value="" style="endArrow=classic;html=1;rounded=0;" edge="1" parent="1">
          <mxGeometry width="50" height="50" relative="1" as="geometry">
            <mxPoint x="390" y="500" as="sourcePoint" />
            <mxPoint x="460" y="500" as="targetPoint" />
          </mxGeometry>
        </mxCell>
        <mxCell id="Y7XemuHt4IpBJlOOACKv-34" value="" style="endArrow=classic;html=1;rounded=0;exitX=1;exitY=0.75;exitDx=0;exitDy=0;entryX=0.648;entryY=0.008;entryDx=0;entryDy=0;entryPerimeter=0;" edge="1" parent="1" source="Y7XemuHt4IpBJlOOACKv-12" target="Y7XemuHt4IpBJlOOACKv-35">
          <mxGeometry width="50" height="50" relative="1" as="geometry">
            <mxPoint x="360" y="590" as="sourcePoint" />
            <mxPoint x="380" y="600" as="targetPoint" />
            <Array as="points">
              <mxPoint x="390" y="575" />
              <mxPoint x="390" y="600" />
            </Array>
          </mxGeometry>
        </mxCell>
        <mxCell id="Y7XemuHt4IpBJlOOACKv-35" value="sayilar[i]" style="shape=card;whiteSpace=wrap;html=1;size=32;" vertex="1" parent="1">
          <mxGeometry x="344" y="620" width="70" height="50" as="geometry" />
        </mxCell>
        <mxCell id="Y7XemuHt4IpBJlOOACKv-39" value="" style="endArrow=classic;html=1;rounded=0;entryX=1;entryY=0.5;entryDx=0;entryDy=0;" edge="1" parent="1" target="Y7XemuHt4IpBJlOOACKv-22">
          <mxGeometry width="50" height="50" relative="1" as="geometry">
            <mxPoint x="400" y="690" as="sourcePoint" />
            <mxPoint x="490" y="530" as="targetPoint" />
            <Array as="points">
              <mxPoint x="490" y="690" />
              <mxPoint x="490" y="543" />
            </Array>
          </mxGeometry>
        </mxCell>
        <mxCell id="Y7XemuHt4IpBJlOOACKv-40" value="" style="endArrow=classic;html=1;rounded=0;exitX=0.5;exitY=1;exitDx=0;exitDy=0;exitPerimeter=0;" edge="1" parent="1">
          <mxGeometry width="50" height="50" relative="1" as="geometry">
            <mxPoint x="394.5" y="670" as="sourcePoint" />
            <mxPoint x="396" y="690" as="targetPoint" />
          </mxGeometry>
        </mxCell>
        <mxCell id="Y7XemuHt4IpBJlOOACKv-50" value="" style="edgeStyle=orthogonalEdgeStyle;rounded=0;orthogonalLoop=1;jettySize=auto;html=1;" edge="1" parent="1" source="Y7XemuHt4IpBJlOOACKv-41" target="Y7XemuHt4IpBJlOOACKv-47">
          <mxGeometry relative="1" as="geometry" />
        </mxCell>
        <mxCell id="Y7XemuHt4IpBJlOOACKv-41" value="" style="shape=step;perimeter=stepPerimeter;whiteSpace=wrap;html=1;fixedSize=1;direction=west;" vertex="1" parent="1">
          <mxGeometry x="240" y="740" width="160" height="80" as="geometry" />
        </mxCell>
        <mxCell id="Y7XemuHt4IpBJlOOACKv-42" value="" style="endArrow=none;html=1;rounded=0;exitX=1;exitY=0.5;exitDx=0;exitDy=0;entryX=0;entryY=0.5;entryDx=0;entryDy=0;" edge="1" parent="1" source="Y7XemuHt4IpBJlOOACKv-41" target="Y7XemuHt4IpBJlOOACKv-41">
          <mxGeometry width="50" height="50" relative="1" as="geometry">
            <mxPoint x="256" y="670" as="sourcePoint" />
            <mxPoint x="306" y="620" as="targetPoint" />
          </mxGeometry>
        </mxCell>
        <mxCell id="Y7XemuHt4IpBJlOOACKv-45" value="medyan_hesap(sayilar,n)" style="text;html=1;strokeColor=none;fillColor=none;align=center;verticalAlign=middle;whiteSpace=wrap;rounded=0;" vertex="1" parent="1">
          <mxGeometry x="284" y="750" width="60" height="30" as="geometry" />
        </mxCell>
        <mxCell id="Y7XemuHt4IpBJlOOACKv-46" value="sonuc" style="text;html=1;strokeColor=none;fillColor=none;align=center;verticalAlign=middle;whiteSpace=wrap;rounded=0;" vertex="1" parent="1">
          <mxGeometry x="270" y="780" width="60" height="30" as="geometry" />
        </mxCell>
        <mxCell id="Y7XemuHt4IpBJlOOACKv-52" value="" style="edgeStyle=orthogonalEdgeStyle;rounded=0;orthogonalLoop=1;jettySize=auto;html=1;" edge="1" parent="1" source="Y7XemuHt4IpBJlOOACKv-47" target="Y7XemuHt4IpBJlOOACKv-51">
          <mxGeometry relative="1" as="geometry" />
        </mxCell>
        <mxCell id="Y7XemuHt4IpBJlOOACKv-47" value="&#39;sonuc&#39;" style="shape=document;whiteSpace=wrap;html=1;boundedLbl=1;" vertex="1" parent="1">
          <mxGeometry x="250" y="880" width="110" height="60" as="geometry" />
        </mxCell>
        <mxCell id="Y7XemuHt4IpBJlOOACKv-51" value="STOP" style="ellipse;whiteSpace=wrap;html=1;" vertex="1" parent="1">
          <mxGeometry x="254" y="990" width="100" height="40" as="geometry" />
        </mxCell>
        <mxCell id="Y7XemuHt4IpBJlOOACKv-55" value="" style="edgeStyle=orthogonalEdgeStyle;rounded=0;orthogonalLoop=1;jettySize=auto;html=1;" edge="1" parent="1" source="Y7XemuHt4IpBJlOOACKv-53" target="Y7XemuHt4IpBJlOOACKv-54">
          <mxGeometry relative="1" as="geometry" />
        </mxCell>
        <mxCell id="Y7XemuHt4IpBJlOOACKv-53" value="medyan_hesap(sayilar,n)" style="ellipse;whiteSpace=wrap;html=1;" vertex="1" parent="1">
          <mxGeometry x="610" y="15" width="140" height="50" as="geometry" />
        </mxCell>
        <mxCell id="Y7XemuHt4IpBJlOOACKv-54" value="" style="rounded=0;whiteSpace=wrap;html=1;" vertex="1" parent="1">
          <mxGeometry x="620" y="100" width="120" height="60" as="geometry" />
        </mxCell>
        <mxCell id="Y7XemuHt4IpBJlOOACKv-56" value="" style="endArrow=none;html=1;rounded=0;exitX=0;exitY=0.5;exitDx=0;exitDy=0;entryX=1;entryY=0.5;entryDx=0;entryDy=0;" edge="1" parent="1" source="Y7XemuHt4IpBJlOOACKv-54" target="Y7XemuHt4IpBJlOOACKv-54">
          <mxGeometry width="50" height="50" relative="1" as="geometry">
            <mxPoint x="610" y="240" as="sourcePoint" />
            <mxPoint x="660" y="190" as="targetPoint" />
          </mxGeometry>
        </mxCell>
        <mxCell id="Y7XemuHt4IpBJlOOACKv-57" value="" style="endArrow=none;html=1;rounded=0;exitX=0.678;exitY=-0.034;exitDx=0;exitDy=0;exitPerimeter=0;" edge="1" parent="1" source="Y7XemuHt4IpBJlOOACKv-54">
          <mxGeometry width="50" height="50" relative="1" as="geometry">
            <mxPoint x="610" y="240" as="sourcePoint" />
            <mxPoint x="701" y="130" as="targetPoint" />
          </mxGeometry>
        </mxCell>
        <mxCell id="Y7XemuHt4IpBJlOOACKv-58" value="" style="endArrow=none;html=1;rounded=0;exitX=0.615;exitY=0.028;exitDx=0;exitDy=0;exitPerimeter=0;" edge="1" parent="1" source="Y7XemuHt4IpBJlOOACKv-54">
          <mxGeometry width="50" height="50" relative="1" as="geometry">
            <mxPoint x="610" y="240" as="sourcePoint" />
            <mxPoint x="694" y="130" as="targetPoint" />
          </mxGeometry>
        </mxCell>
        <mxCell id="Y7XemuHt4IpBJlOOACKv-59" value="i&amp;lt;-1" style="text;html=1;strokeColor=none;fillColor=none;align=center;verticalAlign=middle;whiteSpace=wrap;rounded=0;" vertex="1" parent="1">
          <mxGeometry x="620" y="100" width="60" height="30" as="geometry" />
        </mxCell>
        <mxCell id="Y7XemuHt4IpBJlOOACKv-84" value="" style="edgeStyle=orthogonalEdgeStyle;rounded=0;orthogonalLoop=1;jettySize=auto;html=1;entryX=0.573;entryY=-0.035;entryDx=0;entryDy=0;entryPerimeter=0;" edge="1" parent="1" source="Y7XemuHt4IpBJlOOACKv-60" target="Y7XemuHt4IpBJlOOACKv-82">
          <mxGeometry relative="1" as="geometry">
            <mxPoint x="680" y="215" as="targetPoint" />
          </mxGeometry>
        </mxCell>
        <mxCell id="Y7XemuHt4IpBJlOOACKv-60" value="n" style="text;html=1;strokeColor=none;fillColor=none;align=center;verticalAlign=middle;whiteSpace=wrap;rounded=0;" vertex="1" parent="1">
          <mxGeometry x="650" y="130" width="60" height="30" as="geometry" />
        </mxCell>
        <mxCell id="Y7XemuHt4IpBJlOOACKv-65" value="1" style="text;html=1;strokeColor=none;fillColor=none;align=center;verticalAlign=middle;whiteSpace=wrap;rounded=0;" vertex="1" parent="1">
          <mxGeometry x="690" y="100" width="60" height="30" as="geometry" />
        </mxCell>
        <mxCell id="Y7XemuHt4IpBJlOOACKv-71" value="" style="edgeStyle=orthogonalEdgeStyle;rounded=0;orthogonalLoop=1;jettySize=auto;html=1;" edge="1" parent="1" source="Y7XemuHt4IpBJlOOACKv-66" target="Y7XemuHt4IpBJlOOACKv-70">
          <mxGeometry relative="1" as="geometry" />
        </mxCell>
        <mxCell id="Y7XemuHt4IpBJlOOACKv-66" value="key=sayilar[i]&lt;br&gt;j=i-1" style="rounded=0;whiteSpace=wrap;html=1;" vertex="1" parent="1">
          <mxGeometry x="750" y="180" width="100" height="50" as="geometry" />
        </mxCell>
        <mxCell id="Y7XemuHt4IpBJlOOACKv-69" value="" style="endArrow=classic;html=1;rounded=0;exitX=1;exitY=0.75;exitDx=0;exitDy=0;entryX=0.25;entryY=0;entryDx=0;entryDy=0;" edge="1" parent="1" source="Y7XemuHt4IpBJlOOACKv-54" target="Y7XemuHt4IpBJlOOACKv-66">
          <mxGeometry width="50" height="50" relative="1" as="geometry">
            <mxPoint x="870" y="130" as="sourcePoint" />
            <mxPoint x="870" y="160" as="targetPoint" />
            <Array as="points">
              <mxPoint x="775" y="145" />
            </Array>
          </mxGeometry>
        </mxCell>
        <mxCell id="Y7XemuHt4IpBJlOOACKv-77" value="" style="edgeStyle=orthogonalEdgeStyle;rounded=0;orthogonalLoop=1;jettySize=auto;html=1;" edge="1" parent="1" source="Y7XemuHt4IpBJlOOACKv-70" target="Y7XemuHt4IpBJlOOACKv-76">
          <mxGeometry relative="1" as="geometry" />
        </mxCell>
        <mxCell id="Y7XemuHt4IpBJlOOACKv-70" value="j&amp;gt;=0 &amp;amp;&amp;amp; sayilar[j]&amp;gt;key" style="shape=hexagon;perimeter=hexagonPerimeter2;whiteSpace=wrap;html=1;fixedSize=1;" vertex="1" parent="1">
          <mxGeometry x="735" y="290" width="130" height="80" as="geometry" />
        </mxCell>
        <mxCell id="Y7XemuHt4IpBJlOOACKv-72" value="sayilar[j+1]=sayilar[j]&lt;br&gt;j=j-1" style="rounded=0;whiteSpace=wrap;html=1;" vertex="1" parent="1">
          <mxGeometry x="865" y="390" width="115" height="60" as="geometry" />
        </mxCell>
        <mxCell id="Y7XemuHt4IpBJlOOACKv-74" value="" style="endArrow=classic;html=1;rounded=0;exitX=1;exitY=0.75;exitDx=0;exitDy=0;entryX=0.25;entryY=0;entryDx=0;entryDy=0;" edge="1" parent="1" source="Y7XemuHt4IpBJlOOACKv-70" target="Y7XemuHt4IpBJlOOACKv-72">
          <mxGeometry width="50" height="50" relative="1" as="geometry">
            <mxPoint x="870" y="370" as="sourcePoint" />
            <mxPoint x="900" y="370" as="targetPoint" />
            <Array as="points">
              <mxPoint x="890" y="360" />
              <mxPoint x="890" y="380" />
            </Array>
          </mxGeometry>
        </mxCell>
        <mxCell id="Y7XemuHt4IpBJlOOACKv-75" value="" style="endArrow=classic;html=1;rounded=0;exitX=0.25;exitY=1;exitDx=0;exitDy=0;entryX=1;entryY=0.25;entryDx=0;entryDy=0;" edge="1" parent="1" source="Y7XemuHt4IpBJlOOACKv-72" target="Y7XemuHt4IpBJlOOACKv-70">
          <mxGeometry width="50" height="50" relative="1" as="geometry">
            <mxPoint x="870" y="370" as="sourcePoint" />
            <mxPoint x="880" y="310" as="targetPoint" />
            <Array as="points">
              <mxPoint x="894" y="480" />
              <mxPoint x="1000" y="480" />
              <mxPoint x="1000" y="300" />
              <mxPoint x="910" y="300" />
            </Array>
          </mxGeometry>
        </mxCell>
        <mxCell id="Y7XemuHt4IpBJlOOACKv-76" value="sayilar[j+1]=key" style="rounded=0;whiteSpace=wrap;html=1;" vertex="1" parent="1">
          <mxGeometry x="750" y="510" width="100" height="45" as="geometry" />
        </mxCell>
        <mxCell id="Y7XemuHt4IpBJlOOACKv-80" value="" style="endArrow=classic;html=1;rounded=0;exitX=0.417;exitY=0.987;exitDx=0;exitDy=0;exitPerimeter=0;" edge="1" parent="1">
          <mxGeometry width="50" height="50" relative="1" as="geometry">
            <mxPoint x="790" y="560.005" as="sourcePoint" />
            <mxPoint x="740" y="120" as="targetPoint" />
            <Array as="points">
              <mxPoint x="790" y="590" />
              <mxPoint x="1030" y="590" />
              <mxPoint x="1030" y="120" />
            </Array>
          </mxGeometry>
        </mxCell>
        <mxCell id="Y7XemuHt4IpBJlOOACKv-82" value="n%2==0" style="shape=hexagon;perimeter=hexagonPerimeter2;whiteSpace=wrap;html=1;fixedSize=1;" vertex="1" parent="1">
          <mxGeometry x="615" y="690" width="120" height="80" as="geometry" />
        </mxCell>
        <mxCell id="Y7XemuHt4IpBJlOOACKv-85" value="" style="endArrow=classic;html=1;rounded=0;exitX=1;exitY=0.5;exitDx=0;exitDy=0;entryX=0.333;entryY=0;entryDx=0;entryDy=0;entryPerimeter=0;" edge="1" parent="1" source="Y7XemuHt4IpBJlOOACKv-82" target="Y7XemuHt4IpBJlOOACKv-86">
          <mxGeometry width="50" height="50" relative="1" as="geometry">
            <mxPoint x="1050" y="570" as="sourcePoint" />
            <mxPoint x="780" y="730" as="targetPoint" />
            <Array as="points">
              <mxPoint x="800" y="730" />
            </Array>
          </mxGeometry>
        </mxCell>
        <mxCell id="Y7XemuHt4IpBJlOOACKv-95" value="" style="edgeStyle=orthogonalEdgeStyle;rounded=0;orthogonalLoop=1;jettySize=auto;html=1;exitX=0.5;exitY=1;exitDx=0;exitDy=0;" edge="1" parent="1" source="Y7XemuHt4IpBJlOOACKv-86">
          <mxGeometry relative="1" as="geometry">
            <mxPoint x="826" y="870" as="sourcePoint" />
            <mxPoint x="700" y="930" as="targetPoint" />
            <Array as="points">
              <mxPoint x="800" y="860" />
              <mxPoint x="800" y="930" />
            </Array>
          </mxGeometry>
        </mxCell>
        <mxCell id="Y7XemuHt4IpBJlOOACKv-86" value="medyan=(sayilar[n/2-1]+medyan[n/2])/2" style="rounded=0;whiteSpace=wrap;html=1;" vertex="1" parent="1">
          <mxGeometry x="750" y="800" width="150" height="60" as="geometry" />
        </mxCell>
        <mxCell id="Y7XemuHt4IpBJlOOACKv-88" value="T" style="text;html=1;strokeColor=none;fillColor=none;align=center;verticalAlign=middle;whiteSpace=wrap;rounded=0;" vertex="1" parent="1">
          <mxGeometry x="730" y="700" width="60" height="30" as="geometry" />
        </mxCell>
        <mxCell id="Y7XemuHt4IpBJlOOACKv-89" value="" style="endArrow=classic;html=1;rounded=0;exitX=0;exitY=0.5;exitDx=0;exitDy=0;" edge="1" parent="1" source="Y7XemuHt4IpBJlOOACKv-82">
          <mxGeometry width="50" height="50" relative="1" as="geometry">
            <mxPoint x="720" y="670" as="sourcePoint" />
            <mxPoint x="580" y="800" as="targetPoint" />
            <Array as="points">
              <mxPoint x="580" y="730" />
            </Array>
          </mxGeometry>
        </mxCell>
        <mxCell id="Y7XemuHt4IpBJlOOACKv-93" value="" style="edgeStyle=orthogonalEdgeStyle;rounded=0;orthogonalLoop=1;jettySize=auto;html=1;" edge="1" parent="1" source="Y7XemuHt4IpBJlOOACKv-91">
          <mxGeometry relative="1" as="geometry">
            <mxPoint x="700" y="930" as="targetPoint" />
            <Array as="points">
              <mxPoint x="590" y="930" />
              <mxPoint x="690" y="930" />
            </Array>
          </mxGeometry>
        </mxCell>
        <mxCell id="Y7XemuHt4IpBJlOOACKv-91" value="medyan=sayilar[n/2]" style="rounded=0;whiteSpace=wrap;html=1;" vertex="1" parent="1">
          <mxGeometry x="530" y="800" width="120" height="60" as="geometry" />
        </mxCell>
        <mxCell id="Y7XemuHt4IpBJlOOACKv-96" value="" style="endArrow=classic;html=1;rounded=0;" edge="1" parent="1" target="Y7XemuHt4IpBJlOOACKv-97">
          <mxGeometry width="50" height="50" relative="1" as="geometry">
            <mxPoint x="700" y="930" as="sourcePoint" />
            <mxPoint x="700" y="970" as="targetPoint" />
          </mxGeometry>
        </mxCell>
        <mxCell id="Y7XemuHt4IpBJlOOACKv-97" value="medyan" style="ellipse;whiteSpace=wrap;html=1;" vertex="1" parent="1">
          <mxGeometry x="640" y="960" width="120" height="40" as="geometry" />
        </mxCell>
        <mxCell id="Y7XemuHt4IpBJlOOACKv-100" value="" style="edgeStyle=orthogonalEdgeStyle;rounded=0;orthogonalLoop=1;jettySize=auto;html=1;" edge="1" parent="1" source="Y7XemuHt4IpBJlOOACKv-98" target="Y7XemuHt4IpBJlOOACKv-23">
          <mxGeometry relative="1" as="geometry" />
        </mxCell>
        <mxCell id="Y7XemuHt4IpBJlOOACKv-98" value="n" style="shape=card;whiteSpace=wrap;html=1;" vertex="1" parent="1">
          <mxGeometry x="230" y="410" width="110" height="60" as="geometry" />
        </mxCell>
      </root>
    </mxGraphModel>
  </diagram>
</mxfile>
